<?xml version="1.0" standalone="no"?><!DOCTYPE svg PUBLIC "-//W3C//DTD SVG 1.1//EN" "http://www.w3.org/Graphics/SVG/1.1/DTD/svg11.dtd"><svg t="1580110602600" class="icon" viewBox="0 0 1024 1024" version="1.1" xmlns="http://www.w3.org/2000/svg" p-id="2231" xmlns:xlink="http://www.w3.org/1999/xlink" width="128" height="128"><defs><style type="text/css"></style></defs><path d="M907.1 98.8H674.8c-10 0-18.1 8.1-18.1 18.1s8.1 18.1 18.1 18.1h214.3v221.5c0 10 8.1 18.1 18.1 18.1s18.1-8.1 18.1-18.1V116.9c-0.1-10-8.2-18.1-18.2-18.1zM116.9 374.5c10 0 18.1-8.1 18.1-18.1V134.9h214.4c10 0 18.1-8.1 18.1-18.1s-8.1-18.1-18.1-18.1H116.9c-10 0-18.1 8.1-18.1 18.1v239.6c0 10 8.1 18.1 18.1 18.1zM349.3 889.1H134.9V681.9c0-10-8.1-18.1-18.1-18.1s-18.1 8.1-18.1 18.1v225.2c0 10 8.1 18.1 18.1 18.1h232.4c10 0 18.1-8.1 18.1-18.1s-8-18-18-18zM907.1 663.8c-10 0-18.1 8.1-18.1 18.1V889H674.8c-10 0-18.1 8.1-18.1 18.1s8.1 18.1 18.1 18.1h232.4c10 0 18.1-8.1 18.1-18.1V681.9c-0.1-10-8.2-18.1-18.2-18.1zM907.1 493.9H116.9c-10 0-18.1 8.1-18.1 18.1 0 10 8.1 18.1 18.1 18.1h790.3c10 0 18.1-8.1 18.1-18.1-0.1-10-8.2-18.1-18.2-18.1z" fill="#3E3A39" p-id="2232"></path></svg>