<?xml version="1.0" standalone="no"?><!DOCTYPE svg PUBLIC "-//W3C//DTD SVG 1.1//EN" "http://www.w3.org/Graphics/SVG/1.1/DTD/svg11.dtd"><svg t="1562380001856" class="icon" viewBox="0 0 1024 1024" version="1.1" xmlns="http://www.w3.org/2000/svg" p-id="39811" xmlns:xlink="http://www.w3.org/1999/xlink" width="200" height="200"><defs><style type="text/css"></style></defs><path d="M512.199883 512.299824m-447.737654 0a447.737654 447.737654 0 1 0 895.475308 0 447.737654 447.737654 0 1 0-895.475308 0Z" fill="#FFC600" p-id="39812"></path><path d="M512.199883 222.469647c-16.590279 0-29.982432 13.392153-29.982432 29.982432v399.765762c0 16.590279 13.392153 29.982432 29.982432 29.982432s29.982432-13.392153 29.982432-29.982432v-399.765762c0-16.490338-13.492094-29.982432-29.982432-29.982432z" fill="#FFFFFF" p-id="39813"></path><path d="M512.199883 772.14757m-29.982432 0a29.982432 29.982432 0 1 0 59.964864 0 29.982432 29.982432 0 1 0-59.964864 0Z" fill="#FFFFFF" p-id="39814"></path></svg>